<?xml version="1.0" encoding="UTF-8"?>
<svg id="_圖層_1" data-name="圖層_1" xmlns="http://www.w3.org/2000/svg" viewBox="0 0 1190.55 841.89">
  <defs>
    <style>
      .cls-1 {
        fill: #d0d0d0;
      }
    </style>
  </defs>
  <path class="cls-1" d="M972.04,355.81c-7.95-2.19-11.09-5.89-11.46-13.9-1.05-22.57-4.87-44.71-11-66.52-28.66-101.98-126.5-177.79-232.01-176.8-86.1.8-152.84,39.83-201.2,110.43-6.15,8.98-10.26,10.54-20.22,5.26-32.19-17.06-66.89-25.37-103.2-19.87-84.58,12.82-136.14,62.88-158.06,144.54-2.67,9.93-7.06,14.68-17.45,17.24-49.1,12.11-86.7,40.36-113.69,83.25-15.2,24.16-22.26,50.96-28.15,78.32v43.31c.88,3,2.12,5.95,2.59,9.01,13.99,91.1,92.3,158.67,184.54,158.71,222.32.1,444.64.16,666.96-.03,99.49-.08,183.98-84.05,185.25-183.42,1.18-92.04-53.59-164.92-142.9-189.52ZM1052.39,560.09c-5.49,47.05-47.08,91.56-96.15,102.08-14.06,3.01-28.48,4.31-42.97,4.3-106.45-.07-212.91-.04-319.36-.04-104.65,0-209.3-.06-313.95.06-15.4.02-30.69-1.28-45.68-4.31-52.15-10.53-99.2-62.4-97.02-125.18,2.03-58.44,40.87-108.49,97.7-120.65,13.4-2.87,27-1.85,40.47-1.5,12.3.32,17.23-4.5,16.59-16.75-1.4-26.85,1.28-52.6,14.29-77.35,36.87-70.15,131.37-86.33,188.9-31.4,9.13,8.72,18.06,17.67,26.78,26.81,6.46,6.76,10.05,5.27,13.35-2.95,7.56-18.81,14.21-37.97,23.61-56.07,54.37-104.82,198.19-127.53,282.2-44.64,51.36,50.68,65.76,111.91,53.72,181.24-3.44,19.82-2.34,21.16,17.63,20.87,25.39-.37,50.14.26,73.67,12.7,47.82,25.3,73.02,74.63,66.23,132.78Z"/>
  <path class="cls-1" d="M432.12,468.21c-21.95-7.76-43.9-15.53-65.86-23.28-4.25-1.5-8.58-2.77-12.78-4.37-16.79-6.41-18.62-17.6-4.32-28.77,17.39-13.58,37.33-20.22,59.35-17.56,48.69,5.89,97.49,11.35,144.91,24.68,7.11,2,13.31.07,19.63-2.45,46.82-18.72,93.84-36.98,140.38-56.37,24.84-10.35,50.03-8.96,75.61-6.26,5.37.57,10.7,1.46,16.07,1.95,15.1,1.39,24.86,9.36,29.8,23.58,4.82,13.86,1.22,25.75-8.71,35.86-13.27,13.51-30.61,20.53-47.41,28-36.21,16.12-73.27,30.25-110.94,42.54-13.07,4.26-20.64,11.93-27.13,23.82-21.83,40-46.97,77.84-81.99,107.85-16.73,14.34-37.28,19.55-58.76,21.18-13.25,1.01-19.26-7.58-13.94-21.64,8.28-21.87,18.04-43.19,26.82-64.88,2.41-5.96,9.26-12.98,4.54-18.2-3.69-4.08-11.74,1.12-17.69,2.64-58.03,14.79-115.99,29.86-174.02,44.66-35.33,9.01-52.23,3.06-73.72-25.88-14.49-19.52-28.85-39.14-42.78-59.05-8.23-11.76-5.78-18.39,7.51-23.8.83-.34,1.76-.48,2.54-.91,22.01-11.92,42.11-10.06,62.18,5.73,13.36,10.51,28.88,18.28,43.39,27.34,4.63,2.89,9.28,6.25,15.03,4.02,30.91-12.02,61.76-24.22,92.63-36.35-.12-1.36-.23-2.72-.35-4.08Z"/>
</svg>